<?xml version="1.0" encoding="utf-8" ?>
<svg xmlns="http://www.w3.org/2000/svg" xmlns:xlink="http://www.w3.org/1999/xlink" width="1024" height="1024">
	<path fill="white" d="M0 0L0 1024L1024 1024L1024 0L0 0Z"/>
	<path fill="#E6A735" d="M894.255 961.03C886.517 960.857 878.69 962.035 871.006 962.854C855.925 964.46 840.923 966.449 825.814 967.842Q768.421 973.459 710.8 975.763C675.051 976.982 639.262 977.03 603.835 971.441C601.869 963.93 591.036 931.963 587.578 926.589C584.101 921.189 541.365 886.11 534.503 881.94C530.261 879.362 523.703 879.123 518.851 878.585C501.932 876.708 485.63 876.129 468.683 878.063C477.798 879.98 506.719 887.966 513.25 887.734C519.007 887.53 525.095 885.658 530.707 884.377C534.228 890.491 539.947 895.255 545.152 899.916Q556.5 910.055 567.99 920.034C573.187 924.562 579.029 929.009 583.373 934.387C590.652 943.399 598.324 961.289 603.399 972.229C610.431 976.141 616.974 980.627 623.714 985.005C598.694 987.382 573.117 987.381 548.002 987.945C526.987 988.417 505.965 989.531 484.94 989.461C481.671 983.246 470.121 963.778 465.577 959.732C460.234 954.974 426.259 942.485 416.99 937.809C411.504 926.226 400.897 909.484 393.248 898.861C383.443 894.939 372.258 893.005 362.002 890.479Q330.938 882.653 299.673 875.675C288.943 879.806 278.862 886.06 268.71 891.437C258.875 896.646 248.779 901.349 238.886 906.449C230.095 928.368 220.292 951.658 204.524 969.6C198.516 976.435 191.384 982.484 184.338 988.227C203.552 982.437 220.461 960.092 229.54 943.263C235.119 932.924 238.09 921.596 240.718 910.225C247.964 906.612 255.084 902.761 262.38 899.249C275.45 892.958 288.92 886.921 301.487 879.671C318.198 884.53 334.491 891.628 350.838 897.615C363.491 902.249 376.443 905.953 389.115 910.518C394.266 917.264 398.689 924.668 403.276 931.806C406.643 937.047 410.309 942.196 413.412 947.594Q428.923 952.811 444.311 958.38C449.245 960.184 454.573 961.793 459.19 964.292C459.391 964.401 459.598 964.5 459.796 964.614C464.534 967.341 474.463 984.399 480.948 989.854C487.535 995.395 499.149 999.186 506.754 1004.92C482.036 1007.42 456.096 1004.22 431.21 1004.48C409.578 1004.72 387.985 1006.11 366.336 1006.1C325.18 1006.07 283.647 1003.95 242.586 1001.11C217.36 999.374 192.469 995.44 167.349 992.866Q118.579 988.297 69.6647 985.681C77.4861 984.525 85.7993 984.169 93.4205 982.129C105.437 978.914 116.993 972.877 128.283 967.738C142.615 961.216 156.9 954.87 171.544 949.073C180.898 951.905 194.519 958.865 202.661 960.405C204.975 957.476 207.1 954.474 209.181 951.375C200.421 948.539 178.679 941.101 170.373 941.4C159.599 941.787 140.961 952.815 130.874 957.97C116.311 965.411 102.147 974.907 86.8139 980.623C83.4571 981.874 79.982 982.797 76.3943 983.014C69.3939 983.436 62.0615 982.372 55.1032 981.62C40.3278 980.023 25.6272 977.741 10.854 976.204C37.5268 969.679 63.6647 965.33 91.0876 963.514C80.5296 949.931 56.3529 937.984 58.8463 919.202C59.3714 915.247 61.6657 912.125 64.8294 909.791C70.3175 905.743 76.6592 904.132 81.8157 899.271C86.7127 894.654 90.5585 889.073 93.5116 883.049C97.8725 874.153 100.422 864.21 103.249 854.743L115.338 813.405C117.179 806.506 119.251 799.576 120.659 792.578C116.357 791.373 110.979 790.412 107.442 787.624C106.696 785.544 107.833 783.467 108.73 781.56C110.743 777.287 113.157 773.174 115.277 768.946C122.686 754.17 130.293 739.437 139.404 725.622Q147.023 714.102 155.234 702.995C167.224 687.065 180.079 672 185.731 652.429C188.886 641.504 188.763 628.716 189.739 617.351L194.494 566.658C195.341 557.983 196.482 549.359 197.546 540.71C198.223 535.204 199.178 529.564 198.961 524.004C198.752 518.623 197.477 513.13 196.601 507.812C195.264 499.69 194.092 491.424 193.642 483.2C191.744 448.479 202.039 406.339 222.306 377.576C228.149 369.284 235.455 362.67 242.366 355.36C242.65 349.879 243.339 345.059 245.22 339.883C240.073 330.408 237.567 320.697 240.819 310.04C243.616 300.875 251.114 290.283 255.598 281.539C274.787 244.112 295.333 213.298 326.519 184.798C333.53 178.391 341.575 173.226 348.637 166.91C346.802 162.071 346.323 157.021 348.526 152.195C350.526 147.814 354.329 144.802 358.847 143.302C362.17 142.199 365.682 142.074 369.156 142.125C372.106 131.872 374.758 121.635 384.869 116.092C391.407 112.508 400.32 110.77 407.688 110.178C413.229 102.868 418.684 94.4543 428.629 93.2299C431.685 92.8536 434.461 93.4161 437.349 94.3993C437.535 94.3389 437.721 94.2808 437.906 94.2181C442.309 92.7243 446.514 90.3132 450.398 87.7824C465.568 77.8972 470.574 66.5363 482.098 53.8123C494.637 39.9672 508.976 32.1602 526.947 27.5579C545.037 22.9252 558.138 24.6713 574.757 32.732C579.691 35.125 584.558 37.7781 589.635 39.8539C594.373 41.7913 599.718 43.1968 604.162 45.7207C607.014 47.3408 609.452 49.592 611.505 52.1358C615.055 56.5365 617.322 61.8075 620.311 66.5738C623.849 72.2172 628.705 77.0645 630.83 83.5097C632.579 88.8128 632.151 93.9696 629.606 98.9369C627.345 103.348 624.111 106.532 620.434 109.787L620.302 110.453C619.079 116.949 620.064 129.973 614.377 134.615C611.552 136.921 608.168 133.029 607.157 138.275C606.913 139.541 607.263 141.2 607.439 142.464C606.642 144.23 605.81 144.855 604.022 145.551Q603.517 145.747 603.006 145.926C602.242 148.964 601.507 151.862 601.48 155.015C601.436 160.185 604.793 170.044 599.416 173.218C598.065 174.016 595.519 174.116 593.962 174.339C594.044 182.529 595.586 190.599 595.71 198.73L592.402 201.798C594.83 211.595 599.021 225.307 593.152 234.641C591.854 236.706 589.912 238.172 587.91 239.504C587.904 243.655 587.713 247.775 587.476 251.919Q598.737 261.231 609.532 271.079C612.37 270.812 615.123 270.626 617.978 270.661C618.109 270.747 618.24 270.83 618.369 270.919C626.752 276.668 633.434 286.659 641.23 293.518C646.871 298.48 683.307 307.461 693.159 310.544C697.426 302.588 701.206 294.102 704.672 285.768C706.892 280.432 708.827 273.663 712.088 268.918C714.729 265.075 760.48 238.957 766.736 236.676C788.798 249.633 809.851 264.373 831.114 278.582C835.031 281.199 841.153 283.875 844.273 287.339C850.727 294.505 851.195 310.319 858.015 316.537C863.158 321.227 869.806 324.554 875.479 328.607C884.051 334.732 892.375 341.599 900.312 348.526C945.794 388.22 978.225 444.102 993.336 502.3C1016.86 592.889 1005.2 680.216 957.58 760.922Q954.258 766.584 950.675 772.084Q947.093 777.584 943.257 782.91Q939.421 788.237 935.34 793.378Q931.259 798.52 926.942 803.465Q922.625 808.41 918.081 813.147Q913.538 817.885 908.778 822.405Q904.018 826.925 899.052 831.217Q894.085 835.51 888.924 839.565C878.4 847.892 867.886 855.291 855.596 860.875C868.539 864.628 881.197 871.518 893.276 877.422C899.634 880.53 906.6 883.447 912.524 887.295C917.231 899.694 922.7 916.244 928.746 927.839C937.873 934.397 952.014 938.79 962.623 942.526C934.567 943.929 906.641 949.684 878.517 950.024C880.916 952.913 883.304 955.799 885.849 958.562C888.678 959.314 891.494 960.047 894.255 961.03ZM558.667 63.1097C554.492 70.0669 548.767 75.9913 544.655 82.9441L545.341 83.4697C556.833 84.3163 562.155 71.0943 568.633 63.6992C573.967 57.6102 582.381 52.3655 590.36 50.8199C585.491 53.1747 580.475 55.3289 576.46 59.0487C568.548 66.3785 566.504 79.8269 556.428 84.8181C541.075 92.4239 518.677 74.8874 506.356 92.2074C511.267 90.6984 516.206 88.8464 521.394 88.7852C528.9 88.6966 536.349 90.7558 543.754 91.7466C557.762 93.6205 570.013 89.5645 577.029 76.5213C583.242 64.9719 583.928 59.296 597.842 55.1144C599.974 54.4737 601.716 54.4115 603.863 55.0266L603.997 55.4975L603.863 55.0266C602.85 53.7699 601.801 52.6676 600.461 51.75C592.701 46.4337 575.946 41.911 566.529 43.7158C545.907 47.6682 532.091 63.4117 520.834 79.954C523.941 80.1893 526.965 80.1395 530.077 80.0192C532.283 77.7939 533.892 75.0506 535.798 72.5705C539.827 67.3292 544.796 62.0131 550.251 58.2293C555.944 54.2807 569.639 48.2148 576.692 49.5271L576.261 50.4607C575.374 50.8573 575.778 50.7605 574.798 50.8563C570.929 51.2344 568.227 52.6143 564.778 54.2894C550.806 61.074 544.731 70.9776 534.572 81.8273L540.773 82.6548C545.255 74.5788 551.555 68.8734 558.667 63.1097ZM577.634 77.0753C573.304 85.1186 569.845 91.9689 560.413 94.8336C540.662 100.833 523.917 81.4149 503.437 97.3497C500.036 99.9959 497.062 103.765 494.228 107.01C499.22 109.03 504.539 109.478 509.615 111.136C526.01 116.49 528.002 121.624 546.566 116.6C533.369 117.161 522.095 115.626 511.294 107.119L511.106 106.571C512.646 106.627 513.91 107 515.363 107.452C527.712 111.799 541.348 116.711 554.056 110.724C555.66 109.968 558.515 108.796 559.313 107.163C559.373 107.042 559.395 106.906 559.436 106.777C558.867 106.102 559.206 106.245 558.434 106.179C552.577 105.677 546.8 106.362 540.958 105.319C531.881 103.697 521.222 97.8975 511.845 99.7592C507.629 100.596 503.516 102.415 499.431 103.748C506.838 98.1113 514.967 97.1247 523.996 98.3211C537.692 100.136 557.54 103.428 569.537 94.5324C574.492 90.8585 576.673 85.4711 577.436 79.5174C577.541 78.6991 577.613 77.9 577.634 77.0753L577.865 76.5026L577.634 77.0753ZM452.772 95.6017L452.502 95.8761L452.772 95.6017C456.254 95.2039 459.827 93.6059 462.969 92.1011C486.186 80.9839 494.224 55.3739 513.972 40.3888C493.791 46.5596 482.735 69.7056 468.798 83.9159C464.13 88.6761 458.153 91.7494 452.772 95.6017ZM600.25 98.1447L599.924 98.7308C597.615 99.9239 596.25 100.215 593.734 99.4513C592.189 98.9818 590.685 98.3386 589.196 97.7157C596.197 95.4781 601.02 92.9459 604.57 86.093C609.303 76.9563 607.066 69.5377 604.076 60.4302C603.429 58.4592 602.749 56.5868 601.399 54.9794L600.628 54.8588C598.268 57.4991 599.759 67.1776 597.236 71.3079L596.502 71.2392C594.313 67.8925 595.884 60.3303 596.437 56.4467C582.485 65.054 583.245 80.2018 577.786 93.9002C588.922 83.3383 586.791 78.1558 592.362 65.7075C591.253 71.2896 591.366 77.6143 589.811 82.9636C589.156 85.2184 587.806 87.4069 586.841 89.5593C586.519 90.2781 586.543 89.8955 586.901 90.7154C588.031 90.969 588.153 90.8553 589.126 90.2826C596.358 86.0256 600.992 73.2325 603.867 65.57C602.017 74.8739 601.167 88.7861 592.311 94.5211C589.852 96.1138 587.464 96.5654 584.588 96.4995L579.453 95.2937C575.497 98.7353 570.082 101.833 566.652 105.626C563.342 109.287 563.364 113.2 558.678 116.911C554.648 120.103 549.687 121.47 545.292 123.997C544.285 126.757 542.618 130.146 542.418 133.058C542.007 139.044 546.465 146.749 548.382 152.441C549.765 156.544 550.816 160.787 551.894 164.979C555.448 163.109 559.174 161.707 562.746 159.909C568.029 157.25 576.556 150.01 582.799 152.261C584.319 152.808 586.301 154.302 586.914 155.863C587.176 156.531 587.164 156.713 587.244 157.361C586.117 157.27 585.757 157.045 584.753 156.568C582.886 155.683 581.08 154.964 579.034 155.872C577.931 156.361 577.45 157.153 576.996 158.194C577.854 159.007 578.161 159.083 579.224 159.515C585.314 161.993 589.893 166.462 596.472 168.471C596.487 158.856 596.08 149.253 596.105 139.624C596.11 137.584 595.662 134.937 596.159 132.987C596.397 132.052 597.175 131.023 597.881 130.361C600.037 128.343 603.861 127.407 606.75 127.579C607.846 127.645 608.923 127.848 610.007 128.005C610.22 128.035 610.434 128.059 610.648 128.086C612.35 120.061 613.34 111.824 614.556 103.71C606.463 103.753 605.802 99.1497 599.924 98.7308L600.25 98.1447Q601.667 97.7611 602.972 97.09C606.586 95.2196 608.879 91.2125 610.014 87.4462C612.607 78.842 611.632 67.2124 607.339 59.3588L606.998 58.9861L606.642 59.2714C607.169 62.4465 607.808 65.5986 608.359 68.7691C610.466 80.8938 607.139 88.3758 600.25 98.1447ZM511.146 155.225L510.672 155.379C494.139 168.348 483.593 175.71 461.327 173.121C451.915 172.026 440.622 168.802 433.263 162.541C431.337 160.902 428.616 156.333 426.337 155.697C426.323 156.662 426.503 157.352 426.798 158.267C430.859 166.491 440.012 170.463 448.319 173.272C462.377 178.026 479.686 178.811 493.248 172.023C499.812 168.738 507.466 162.064 510.672 155.379L511.146 155.225L511.387 154.502L511.146 155.225ZM507.775 202.888C510.032 197.446 513.52 192.639 516.076 187.342C518.412 182.5 519.492 176.845 522.575 172.419C520.799 181.587 517.428 189.431 514.262 198.134C510.147 209.449 511.983 220.789 514.041 232.345C517.637 213.154 520.281 198.467 534.131 183.806C530.368 192.962 525.749 204.907 526.509 214.992C526.8 218.857 528.717 225.025 527.777 228.706L527.094 228.568C524.116 224.96 523.038 218.641 521.766 214.156C515.718 225.77 515.048 241.648 517.502 254.347C517.86 251.335 518.335 248.424 519.129 245.492C520.143 241.752 522.713 231.561 525.949 229.698C528.572 238.876 526.521 250.877 526.304 260.349C526.201 264.802 526.508 269.156 526.927 273.584C528.884 262.981 534.816 247.077 534.471 237.042C534.335 233.103 531.927 229.369 531.61 225.391C531.056 218.414 539.794 182.64 543.253 175.71C545.003 172.203 548.445 169.033 551.084 166.124C548.151 158.356 542.406 152.313 540.012 144.163C538.722 139.773 539.732 130.974 538.081 127.904C537.668 128.112 537.489 128.172 537.118 128.533C530.452 135.015 527.674 147.423 524.167 155.724C522.36 160.003 519.244 163.749 517.003 167.817C511.092 178.551 508.861 190.838 507.775 202.888ZM486.601 184.502L486.843 184.766C488.067 188.709 490.336 192.646 491.925 196.5C494.566 202.908 496.547 209.797 499.804 215.906C501.038 218.221 502.528 220.209 504.435 222.016C501.56 213.528 500.601 205.878 499.941 196.986C496.687 192.056 491.221 188.682 486.843 184.766L486.601 184.502ZM364.136 251.156C361.129 236.734 360.855 222.588 365.927 208.515C368.673 200.895 373.964 190.907 381.65 187.338C371.995 199.425 368.005 213.274 369.635 228.678C370.154 233.577 371.394 238.34 372.474 243.137C373.095 227.595 376.148 209.864 388.09 198.746C396.852 190.59 408.627 185.61 420.673 186.068C437.243 186.697 453.636 198.582 464.392 210.398C476.695 223.914 484.05 239.836 492.342 255.852C489.361 231.277 475.852 201.247 455.94 185.744C440.659 173.847 427.659 177.438 417.579 157.017C376.05 161.468 336.804 184.353 310.785 216.749C289.065 243.793 273.714 277.473 277.68 312.91C278.359 318.972 279.784 328.845 284.813 332.879C288.83 336.101 296.085 335.82 301.023 336.085C292.515 330.514 287.556 324.53 285.402 314.44C279.933 288.819 290.881 260.557 304.726 239.454C308.779 233.277 320.525 217.041 326.756 213.337C324.403 218.12 320.118 222.56 317.179 227.108C308.128 241.116 301.272 258.295 298.958 274.804C297.244 287.028 297.954 301.599 305.88 311.709C312.17 319.733 321.376 322.335 331.054 323.524C324.495 318.431 318.627 312.059 314.478 304.836C306.258 290.525 306.233 276.21 310.45 260.617C310.355 264.16 310.243 267.729 310.545 271.265Q310.633 272.354 310.776 273.437Q310.918 274.52 311.114 275.594Q311.309 276.669 311.558 277.733Q311.807 278.796 312.108 279.846Q312.409 280.896 312.761 281.93Q313.114 282.964 313.517 283.979Q313.921 284.994 314.374 285.988Q314.827 286.982 315.329 287.952Q315.831 288.922 316.38 289.866Q316.929 290.81 317.524 291.726Q318.12 292.642 318.76 293.527Q319.4 294.412 320.083 295.265Q320.766 296.117 321.49 296.935Q322.214 297.752 322.978 298.533Q323.742 299.314 324.544 300.056Q325.346 300.798 326.183 301.499C340.117 312.944 357.233 314.255 374.584 312.53C359.977 310.009 345.932 306.415 336.314 294.251C328.217 284.011 323.836 262.496 325.28 249.914C329.329 269.236 333.421 284.095 350.518 295.513C336.479 279.891 331.521 265.182 329.081 244.274Q329.576 245.51 330.11 246.73C340.286 270.068 353.284 279.632 376.375 288.674C370.675 279.152 364.835 269.867 360.245 259.736C351.248 239.88 346.553 218.816 354.415 197.839C350.812 217.595 355.114 233.586 364.136 251.156ZM464.345 186.016C474.798 194.166 480.847 204.352 488.675 214.708L488.927 214.998L488.675 214.708C486.236 205.353 480.975 194.67 476.166 186.318C472.231 186.395 468.277 186.161 464.345 186.016ZM436.373 223.781C439.829 225.904 442.998 228.555 446.252 230.975C456.51 238.603 469.776 249.231 480.782 254.881C471.372 232.998 457.187 207.104 433.767 197.9C424.638 194.313 414.963 194.758 406.048 198.725C397.602 202.482 391.747 209.399 388.472 217.949C382.289 234.091 388.664 251.572 395.422 266.486Q396.064 267.92 396.741 269.337Q397.419 270.754 398.131 272.154Q398.844 273.554 399.59 274.936Q400.337 276.318 401.118 277.681Q401.899 279.044 402.713 280.387Q403.528 281.73 404.375 283.053Q405.222 284.375 406.102 285.676Q406.982 286.978 407.894 288.257Q408.806 289.536 409.749 290.792Q410.693 292.048 411.667 293.28Q412.641 294.512 413.645 295.72Q414.65 296.927 415.684 298.11Q416.718 299.292 417.781 300.449Q418.844 301.605 419.935 302.735Q421.026 303.865 422.145 304.967Q423.264 306.069 424.41 307.144Q425.556 308.218 426.729 309.264Q427.901 310.309 429.099 311.326Q430.296 312.342 431.519 313.328Q432.742 314.314 433.988 315.27Q435.235 316.225 436.505 317.15Q437.775 318.074 439.067 318.967Q440.36 319.859 441.674 320.72Q442.988 321.58 444.323 322.408Q445.659 323.235 447.014 324.029Q448.369 324.824 449.743 325.584Q451.118 326.344 452.511 327.07Q453.904 327.796 455.314 328.488Q456.725 329.179 458.152 329.835Q459.579 330.491 461.022 331.112Q462.465 331.732 463.923 332.317Q465.381 332.902 466.853 333.45C490.456 342.204 515.66 343.547 540.498 341.304C524.081 346.891 492.562 353.672 475.973 352.455C470.766 352.073 465.953 350.634 461.11 348.757C489.083 370.799 518.823 386.839 555.681 382.293C564.397 381.218 574.2 378.477 582.355 375.153C572.858 386.204 555.756 398.313 540.748 399.487C535.327 399.911 529.812 399.349 524.444 398.595C535.177 404.981 545.696 411.754 556.602 417.839C563.462 413.196 569.32 406.789 574.929 400.723C594.203 379.879 608.873 358.172 624.32 334.536C620.845 333.715 617.329 332.731 613.806 332.166C592.187 349.17 577.931 362.202 549.402 367.64Q545.406 368.413 541.364 368.886Q537.322 369.358 533.256 369.526Q529.19 369.694 525.122 369.557Q521.055 369.421 517.009 368.98C504.014 367.452 491.067 363.159 479.18 357.737C527.817 366.789 568.182 360.255 609.586 331.93C598.595 331.036 587.716 330.346 576.806 328.63C571.306 327.766 565.64 325.635 560.139 325.289C550.91 324.71 541.423 326.357 532.061 325.97C514.531 325.244 497.438 322.344 480.034 320.499C487.903 319.73 508.011 319.014 514.177 314.124L514.7 312.961C513.9 311.184 512.753 310.55 510.954 309.876C497.039 304.657 482.177 306.76 467.744 307.403C439.68 308.653 417.295 304.272 404.443 277.235C400.858 269.694 396.049 259.051 394.936 250.764C420.442 287.969 459.089 295.784 499.885 305.052C506.018 306.445 511.901 308.712 517.96 310.365C523.192 311.793 528.615 312.421 533.892 313.653C537.658 314.531 541.159 315.979 544.836 317.102C537.453 309.679 527.829 299.873 518.736 294.82C499.555 284.162 450.057 279.776 436.039 267.277C451.193 272.291 466.112 276.629 482.052 278.252C470.916 271.072 458.703 266.364 449.593 256.25C454.701 258.495 459.528 261.996 464.623 264.447C475.435 269.65 486.73 272.905 498.244 276.091C482.467 263.914 466.662 252.17 451.782 238.876C446.527 234.182 440.797 229.274 436.373 223.781ZM771.509 245.119L772.212 245.362L772.344 245.797C777.398 255.376 795.637 272.693 804.043 280.597C809.452 285.683 815.408 290.664 819.456 296.965C823.143 302.704 825.347 309.719 827.815 316.068C832.855 329.031 837.876 342.034 842.687 355.083C844.906 361.099 846.446 367.632 849.122 373.427C853.631 383.195 870.179 386.949 876.363 395.76C879.991 400.93 882.053 407.909 884.592 413.709L899.022 446.583C901.805 453.047 904.328 460.005 907.564 466.228C909.108 469.195 984.446 533.649 991.145 537.273L991.391 537.462L991.145 537.273C984.69 528.369 976.376 520.342 968.966 512.194C956.023 497.96 938.365 475.78 922.83 465.845C918.399 448.612 914.727 430.847 909.151 413.958C919.485 420.893 928.55 429.55 937.869 437.741L972.478 468.052L972.25 467.681C964.587 455.443 953.394 444.653 944.12 433.506C938.78 427.088 929.752 413.65 923.608 409.085C910.683 399.485 896.718 390.894 883.481 381.668C877.715 377.649 871.049 373.567 866.242 368.426C861.465 363.317 849.391 320.793 846.066 310.493C844.298 305.017 842.627 297.545 839.021 292.972C835.613 288.651 827.549 286.047 822.961 282.786C812.28 275.195 801.677 267.241 791.195 259.367C785.12 254.803 778.96 249.551 772.344 245.797L772.212 245.362L771.509 245.119ZM265.581 284.305C260.774 292.48 257.906 305.415 260.32 314.773C262.225 322.159 267.033 327.791 273.604 331.473C273.775 331.569 273.952 331.656 274.127 331.747L277.18 332.888L277.545 332.485C268.219 315.61 263.441 303.959 265.581 284.305L265.875 284.002L265.581 284.305ZM252.852 348.941C259.651 359.46 270.618 363.847 282.495 366.623C317.14 374.72 352.453 348.489 380.154 331.26C376.954 335.058 372.376 338.345 368.402 341.346C347.165 357.382 321.52 371.234 295.935 378.633C301.551 379.172 307.362 379.465 312.983 378.895C347.531 375.386 377.961 344.142 398.703 318.433C397.514 316.326 396.119 314.315 394.8 312.286C388.447 316.434 382.13 320.683 375.432 324.262C353.138 336.177 327.663 342.568 302.629 345.051C291.46 346.388 280.243 345.964 269.046 346.618C295.902 355.339 325.052 349.227 351.567 342.14C344.167 345.624 336.474 348.077 328.648 350.393C300.67 358.676 280.402 357.541 252.852 348.941ZM757.587 372.502L757.808 372.771L758.14 373.641C759.376 376.793 761.32 379.793 762.821 382.838C767.771 392.873 773.714 403.73 777.103 414.37C779.949 423.309 781.439 432.943 783.382 442.129L794.366 492.396C796.362 501.802 797.721 511.674 800.376 520.89C823.025 534.511 844.191 550.356 865.695 565.667C880.212 576.003 895.733 585.783 909.333 597.314C919.434 605.879 929.446 622.651 939.841 629.603C944.888 632.979 956.009 635.887 962.027 638.229Q977.908 644.346 993.198 651.819C993.971 647.811 994.642 643.823 995.166 639.774C990.79 637.623 985.552 635.695 981.594 632.857C969.732 624.351 962.695 608.031 951.229 598.592C939.587 589.007 920.235 581.134 911.116 569.74C904.5 561.473 897.499 548.324 892.117 538.956C889.576 534.533 887.056 528.301 883.277 524.835C874.299 516.602 852.657 517.553 844.68 507.371C841.04 502.726 838.511 496.518 835.716 491.294C828.645 478.076 821.623 464.9 815.14 451.38C812.502 445.878 810.061 438.547 806.425 433.747L806.126 433.502L806.425 433.747C806.363 439.6 807.137 445.513 807.352 451.375C807.833 464.505 808.03 477.623 808.816 490.744L808.453 490.83L808.801 491.796L809.066 491.735L808.56 491.388C808.592 491.152 808.666 490.917 808.655 490.679C808.483 486.908 806.71 482.257 805.961 478.429L798.39 438.349C797.043 431.216 796.297 421.733 793.217 415.218C791.565 411.726 761.309 375.639 757.808 372.771L757.587 372.502ZM302.502 400.084L302.797 400.318C319.107 418.879 339.728 433.086 360.388 446.335C366.394 450.186 372.491 454.545 379.076 457.324Q381.79 458.463 384.653 459.146Q387.516 459.83 390.452 460.04C399.152 460.658 409.202 457.614 415.906 451.952Q416.704 451.289 417.41 450.528Q418.115 449.768 418.717 448.923Q419.318 448.077 419.805 447.161Q420.292 446.245 420.657 445.274L420.876 445.068L420.657 445.274C417.181 447.426 413.935 449.567 410.201 451.276C405.008 453.653 395.914 457.083 390.153 455.689C382.119 453.744 369.126 441.22 361.628 435.992C354.679 431.146 347.252 426.992 340.138 422.392C328.485 414.857 315.892 405.165 302.797 400.318L302.502 400.084ZM389.078 418.681C408.726 408.395 423.403 401.929 438.668 384.264C442.273 380.091 445.191 375.429 448.645 371.162L440.112 366.102C428.872 385.036 413.419 401.451 394.206 412.443C389.111 415.358 382.681 417.225 377.952 420.255L380.129 420.546C385.762 420.281 391.387 420.682 397.003 420.077Q398.935 419.869 400.855 419.574Q402.776 419.279 404.681 418.899Q406.587 418.518 408.473 418.053Q410.36 417.587 412.224 417.038Q414.087 416.488 415.925 415.856Q417.762 415.224 419.569 414.509Q421.376 413.795 423.149 413.001Q424.922 412.207 426.658 411.334Q428.394 410.461 430.089 409.511Q431.784 408.561 433.435 407.536Q435.086 406.511 436.689 405.413Q438.292 404.315 439.845 403.147Q441.397 401.978 442.896 400.741Q444.394 399.504 445.836 398.202Q447.277 396.899 448.659 395.533Q450.041 394.167 451.36 392.74C455.038 388.712 458.501 384.212 461.316 379.537C459.732 378.126 458.185 376.706 456.447 375.482C453.578 379.894 450.709 384.065 446.997 387.817C433.221 401.741 409.815 413.867 390.937 418.369C390.317 418.517 389.709 418.598 389.078 418.681ZM332.037 462.093L332.249 462.322C334.494 466.726 338.033 470.882 341.127 474.735C361.762 500.431 393.555 521.133 423.855 533.694C444.022 542.055 465.348 547.632 485.602 555.777C495.615 559.804 505.842 564.074 515.527 568.834C521.369 571.705 527.533 576.018 533.705 577.952C534.023 578.052 534.347 578.13 534.668 578.219L534.981 578.402L534.668 578.219C528.549 571.382 523.276 563.56 517.411 556.46C497.56 532.433 476.995 507.857 453.891 486.878L453.259 487.458C452.4 488.252 451.56 489.006 450.533 489.586C437.607 496.888 413.503 494.35 399.873 490.315C415.691 489.091 431.838 485.29 444.161 474.718C441.441 471.491 438.249 468.547 435.287 465.535C432.359 471.153 429.651 475.356 423.878 478.483C409.619 486.205 387.199 482.622 372.42 478.283C389.309 487.441 406.556 496.224 423.252 505.702Q441.361 516.16 458.917 527.52C465.141 531.507 472.914 535.557 478.214 540.684C474.75 539.612 471.313 537.693 468.021 536.153C459.699 532.261 451.537 528.032 443.21 524.167Q427.423 516.739 411.502 509.601C394.18 501.93 376.469 494.446 360.354 484.414C349.978 477.955 341.593 470.045 332.249 462.322L332.037 462.093ZM345.119 492.002L345.526 492.483L345.843 492.852C353.513 509.037 366.204 525.141 379.515 536.939C406.146 560.543 452.074 582.568 484.259 597.896Q495.399 603.21 506.655 608.274C511.251 610.363 516.546 612.291 520.725 615.097C514.19 613.722 507.4 610.553 501.088 608.232C486.578 602.897 471.807 597.701 457.81 591.113C449.21 587.066 440.788 581.935 431.809 578.781L431.502 578.553L431.809 578.781C436.429 582.49 442.026 585.447 447.11 588.482C466.857 600.271 503.633 621.017 526.104 624.066C496.149 625.75 431.437 605.656 403.314 593.812C409.705 598.564 417.207 602.277 424.25 605.975C452.2 620.654 491.053 637.758 522.897 637.536C493.999 647.945 461.842 639.606 435.061 627.011Q421.543 620.64 408.652 613.08C403.172 609.821 397.124 605.058 391.261 602.756L391.002 602.509L391.261 602.756C395.118 607.093 400.093 610.872 404.563 614.572C428.343 634.255 457.148 649.736 488.496 651.649C502.663 652.513 513.738 649.802 525.391 641.769C528.934 639.325 532.404 636.335 536.133 634.226C529.851 644.951 510.341 657.471 498.373 660.595C494.363 661.641 490.553 661.814 486.426 661.683C496.774 682.005 502.729 698.162 504.741 721.156C508.409 711.883 512.631 702.842 516.574 693.685C519.396 687.131 521.88 679.608 525.671 673.603Q518.902 696.073 511.492 718.34C508.147 728.67 505.123 738.993 500.983 749.051C500.271 717.412 494.31 685.26 470.206 662.47C468.508 660.864 466.625 659.473 464.769 658.057C470.5 672.769 477.315 687.29 481.548 702.526C486.957 721.996 486.69 741.927 486.449 761.944C515.387 764.41 541.32 755.924 567.203 743.96Q565.47 716.073 564.021 688.17C563.396 677.194 562.412 666.173 562.282 655.184C554.924 681.294 540.443 727.301 524.836 748.686C526.715 740.808 530.027 733.207 532.199 725.373L551.993 651.354C555.166 639.033 558.884 626.787 561.253 614.281C549.409 589.699 491.802 570.863 467.234 561.339L427.859 545.985C414.355 540.682 400.884 535.46 388.225 528.297C371.793 519.001 358.924 506.227 345.843 492.852L345.526 492.483L345.119 492.002ZM258.516 566.223C245.672 531.944 231.368 503.45 223.784 466.99C222.102 458.906 220.493 450.887 219.847 442.639C218.764 428.802 219.483 414.988 220.606 401.18C210.272 431.448 207.262 497.238 215.136 528.38C217.192 536.514 221.582 544.476 225.015 552.124C228.085 558.961 230.726 565.891 233.235 572.951C236.815 583.03 240.263 593.231 242.753 603.642C251.294 639.349 255.344 689.612 249.987 726.026C248.931 717.675 248.595 709.266 247.607 700.905C244.147 671.629 238.752 645.064 228.706 617.223C225.337 607.888 221.986 598.271 217.333 589.487C228.208 645.632 229.866 704.106 218.128 760.221Q214.616 776.218 210.226 791.996C208.506 798.07 206.321 804.227 204.99 810.385C214.709 810.265 223.701 810.13 230.934 802.601C236.712 796.586 241.027 788.776 244.879 781.435C258.869 754.773 267.281 726.093 273.428 696.698C274.056 693.694 277.853 670.527 278.375 669.976L278.534 671.029L278.136 671.442L278.068 672.076L278.817 672.019C278.743 672.268 278.642 672.511 278.596 672.766C278.043 675.84 278.546 679.903 278.363 683.14C277.923 690.892 277.072 698.601 276.198 706.313C272.135 742.152 265.77 777.644 253.713 811.724Q256.971 812.323 260.274 812.562Q263.578 812.8 266.888 812.676C273.198 802.834 277.069 790.179 280.387 778.987C296.703 723.941 295.887 668.651 291.198 611.936C290.474 603.186 289.619 594.367 288.399 585.673C287.319 577.976 285.784 570.265 285.393 562.496C290.41 578.8 292.932 596.113 296.188 612.837C299.603 630.383 303.1 647.766 305.588 665.486Q306.846 674.318 307.81 683.186Q308.775 692.055 309.445 700.951Q310.115 709.847 310.489 718.76Q310.864 727.673 310.943 736.593Q311.022 745.514 310.805 754.432Q310.588 763.35 310.075 772.257Q309.563 781.163 308.755 790.047Q307.948 798.931 306.846 807.784C309.58 808.221 312.245 808.592 315.012 808.746C317.026 797.398 317.812 785.643 318.705 774.156C322.869 720.64 321.183 656.645 312.457 603.631C309.694 586.841 304.941 570.573 301.251 553.994C301.344 554.176 301.439 554.357 301.53 554.541C305.262 562.114 307.548 571.05 309.923 579.137C325.313 631.542 332.037 698.304 332.648 753.035C332.754 762.496 332.77 772.047 332.265 781.5C331.861 789.078 330.96 796.735 330.914 804.321L330.43 804.666L331.322 805.102L331.165 805.855L330.936 804.802L331.075 806.082C332.839 805.214 333.294 803.955 333.924 802.145C338.383 789.337 339.597 759.598 339.919 745.844C340.401 725.234 338.859 704.788 336.524 684.321C330.208 628.962 317.927 581.974 299.396 529.674C289.875 502.803 278.389 476.508 270.167 449.214C264.972 431.969 260.657 413.818 257.407 396.108C255.966 388.257 255.19 380.252 253.61 372.443C250.69 382.204 250.559 393.127 250.505 403.28C250.249 451.391 260.357 499.209 270.421 546.079C273.978 562.64 281.023 587.953 280.501 604.745C277.809 598.3 276.358 590.83 274.594 584.052Q270.632 568.753 266.452 553.513C253.741 506.289 239.172 458.489 240.009 409.135C240.223 396.545 241.885 384.527 243.245 372.057C226.456 420.958 236.3 476.769 248.045 525.676C250.926 537.672 257.37 553.938 258.483 565.806C258.496 565.945 258.505 566.084 258.516 566.223ZM733.12 404.248C732.282 412.411 730.808 420.52 729.823 428.67L724.328 476.927C723.493 484.063 721.027 496.007 721.651 502.838C722.026 506.942 729.885 525.306 731.767 530.601C737.176 545.821 741.364 562.225 748.081 576.848C748.72 578.238 749.273 578.672 750.528 579.482C758.815 584.829 768.234 589.215 776.939 593.884Q803.044 608.066 829.515 621.552C843.942 628.928 858.191 637.656 872.954 644.223L873.663 644.674L873.977 644.909L873.663 644.674L872.954 644.223C869.014 640.398 863.722 637.387 859.226 634.219C853.854 630.434 848.641 626.368 843.021 622.954C822.201 610.309 799.034 601.162 777.079 590.687C768.823 586.749 757.569 582.175 750.225 576.906C745.744 564.879 743.136 551.552 739.911 539.116C736.198 524.799 730.741 509.601 729.728 494.825C732.085 499.327 733.637 504.507 735.586 509.226Q743.641 528.529 751.201 548.031C753.922 554.986 756.289 562.441 759.508 569.159C768.805 575.733 780.072 580.413 790.448 584.996C808.008 592.752 825.872 599.78 843.473 607.432C850.765 610.602 858.24 613.636 865.282 617.332C877.176 623.573 887.605 633.127 898.038 641.526C901.421 644.25 905.006 647.61 908.752 649.773L909.088 650.085L909.619 650.681L909.921 650.977L909.619 650.681L909.088 650.085L908.752 649.773C905.576 644.434 899.142 639.779 894.835 635.228C888.505 628.54 882.32 620.879 874.773 615.549C864.992 608.642 852.358 604.434 841.327 599.944C824.703 593.178 807.858 586.591 791.46 579.305C783.672 575.846 774.583 572.134 768.039 566.641C765.858 564.81 764.36 562.724 763.009 560.234C757.845 550.718 754.266 539.63 750.028 529.595C744.684 516.943 738.554 504.512 733.67 491.682Q733.032 490.024 732.618 488.296Q732.205 486.568 732.022 484.801C731.334 478.021 732.028 470.871 732.229 464.065L733.17 429.069C733.376 420.834 733.863 412.459 733.12 404.248ZM660.503 686.114L661.206 686.362L661.61 687.241L661.862 687.392C666.331 693.935 677.211 703.862 682.99 710.139C695.136 723.329 706.812 736.896 719.251 749.818C721.769 752.435 724.762 756.381 727.78 758.314C733.784 762.158 756.404 767.649 764.357 770.156Q793.944 779.219 823.016 789.819C838.933 795.7 854.617 802.63 870.256 809.23C875.949 811.632 882.367 815.537 888.416 816.702L889.244 817.124L889.974 817.411L889.244 817.124L888.416 816.702C885.453 814.289 881.604 812.376 878.345 810.346C867.301 803.47 855.939 797.176 844.616 790.772C831.641 783.433 818.386 774.541 804.64 768.861C796.692 765.576 788.279 763.096 780.171 760.201Q770.019 756.658 760.212 752.248Q750.405 747.839 741.017 742.596C721.201 731.288 702.645 717.983 684.292 704.468C677.279 699.303 669.311 691.384 661.862 687.392L661.61 687.241L661.206 686.362L660.503 686.114ZM647.562 705.003L647.825 705.201C655.632 714.505 665.066 722.789 673.493 731.583C682.559 741.044 691.458 751.094 701.22 759.836C719.331 776.055 745.259 790.802 767.922 799.198C776.209 802.267 784.888 804.418 793.382 806.84C800.9 808.982 813.269 813.623 820.436 814.699L820.997 814.997L820.436 814.699C814.428 810.454 806.279 807.615 799.632 804.412C780.027 794.965 759.826 786.267 741.293 774.812C725.948 765.328 712.132 754.86 697.8 743.983C690.555 738.484 683.159 733.167 676.025 727.527C666.879 720.298 657.948 711.945 648.28 705.499L647.825 705.201L647.562 705.003ZM840.503 737.002L841.081 737.269C846.912 741.489 854.643 744.7 861.076 748.098C868.809 752.182 876.522 756.357 884.397 760.16C900.808 768.086 917.667 775.5 933.516 784.518C934.519 783.31 935.41 781.984 936.332 780.712C937.786 778.373 939.032 775.904 940.327 773.474C919.15 763.932 896.206 757.529 874.285 749.887C863.136 746.001 852.314 740.729 841.081 737.269L840.503 737.002ZM149.27 856.677C152.072 848.543 156.346 840.038 161.022 832.801C162.699 830.205 165.233 827.782 166.492 825.004C164.859 823.914 162.294 824.354 160.43 824.715C152.284 826.295 145.937 832.185 139.148 836.491L139.45 835.839C141.394 831.706 149.001 822.025 148.666 818.233C147.929 817.13 147.746 816.844 146.383 816.477C143.736 815.763 140.018 817.572 137.983 819.119C128.002 826.711 122.752 847.936 119.415 859.768C117.966 864.905 116.844 870.28 114.523 875.109C110.962 882.516 103.887 889.255 98.6626 895.599C96.0683 898.749 93.6078 902.057 90.9283 905.128C85.5495 911.292 78.3145 915.987 77.4542 924.952C77.3092 926.463 77.341 928.013 77.3498 929.529C79.0205 932.75 80.357 934.998 83.9558 936.19C86.0117 936.871 88.2055 937.322 90.3152 937.815C92.3904 940.19 94.0674 942.68 95.7602 945.336Q101.584 954.88 107.687 964.249C117.749 957.989 127.774 952.226 138.31 946.808C133.667 938.426 129.379 929.827 126.235 920.757Q128.799 915.23 131.624 909.832Q134.45 904.433 137.53 899.177Q140.611 893.92 143.939 888.816Q147.267 883.713 150.836 878.774Q154.405 873.836 158.206 869.073Q162.006 864.311 166.031 859.737Q170.055 855.162 174.293 850.785Q178.532 846.407 182.975 842.238C184.947 840.376 190.057 836.358 189.071 833.399C186.416 831.745 182.486 831.904 179.545 832.661C166.461 836.027 159.263 849.002 149.27 856.677ZM303.502 898.622L303.764 898.908C306.724 901.582 310.922 902.865 313.717 905.798C321.582 914.053 326.167 929.355 333.278 937.23C339.874 944.536 351.705 945.505 358.6 952.203C363.753 957.209 371.065 972.966 377.005 975.137C376.607 972.093 374.441 968.515 372.933 965.846C369.893 960.467 363.772 949.014 359.051 945.384C355.87 942.938 351.662 941.316 348.053 939.569C344.976 938.079 341.364 936.607 338.924 934.164C336.435 931.671 334.529 928.525 332.665 925.558C323.642 911.198 321.437 903.825 303.764 898.908L303.502 898.622ZM802.541 898.212C805.75 902.606 819.52 906.35 824.968 907.647L825.497 907.941L824.968 907.647C821.5 904.504 807.453 899.694 802.541 898.212ZM521.56 909.503L521.757 910.282L522.785 911.266L522.923 911.445C524.46 914.892 527.262 917.916 529.936 920.539C537.969 928.42 547.625 934.445 556.066 941.861C562.593 947.595 568.338 955.181 575.293 960.226L575.577 960.603L576.143 961.158L576.582 961.678L576.905 961.997L576.582 961.678L576.143 961.158L575.577 960.603L575.293 960.226C573.18 957.065 570.373 954.283 567.799 951.49C556.822 939.581 546.021 931.591 533.672 921.315C529.924 918.196 526.497 914.754 522.923 911.445L522.785 911.266L521.757 910.282L521.56 909.503ZM827.982 894.77C834.967 899.394 845.842 902.575 853.631 906.714C862.812 911.594 870.914 918.173 879.852 923.449C882.292 924.889 884.762 926.33 887.43 927.308L888.181 927.628L888.497 927.914L888.181 927.628L887.43 927.308C884.649 924.427 880.335 922.089 877.057 919.742C871.245 915.581 865.511 911.09 859.383 907.404C850.517 902.071 838.135 896.978 827.982 894.77ZM700.866 908.867C706.764 909.145 713.184 908.971 718.94 910.216C731.493 912.929 743.87 919.34 755.836 923.981Q782.261 934.037 809.181 942.682C816.898 945.144 825.46 948.569 833.496 949.653L834.701 950.193L834.997 950.374L834.701 950.193L833.496 949.653C820.078 943.753 805.274 940.558 791.545 935.364C784.336 932.636 777.34 929.099 770.293 925.976C762.222 922.398 754.015 919.129 745.915 915.617C738.981 912.611 731.731 908.844 724.352 907.13C718.915 905.867 712.702 906.036 707.11 905.72C701.775 896.969 697.519 887.624 693.127 878.379C685.104 873.714 674.622 868.772 667.757 862.677C662.87 858.337 648.85 828.532 643.687 819.998C622.941 823.02 602.109 825.445 581.343 828.342C578.606 828.734 575.95 829.311 573.257 829.925C584.109 830.374 595.08 829.778 605.946 829.69C616.644 829.603 627.908 830.221 638.506 828.783C643.73 837.739 651.786 855.088 657.686 862.19C663.719 869.451 678.252 874.565 685.547 882.288C688.868 885.803 697.259 903.046 700.866 908.867ZM401.915 972.523C408.996 978.842 415.903 983.066 425.26 985.104L425.498 985.375L425.26 985.104C423.066 983.529 420.445 982.412 418.18 980.859C413.223 977.461 408.903 973.377 404.489 969.322C396.887 969.165 389.012 970.585 381.662 972.418L380.852 973.043C382.256 974.081 398.803 972.539 401.915 972.523ZM427.327 966.389C437.904 970.009 446.738 974.066 455.634 980.98C459.225 983.771 462.582 986.931 466.296 989.547L466.638 989.784L466.887 989.997L466.638 989.784C466.043 988.886 465.425 988.101 464.679 987.323C453.979 976.165 443.63 966.73 427.327 966.389ZM539.775 33.6449C523.869 36.2029 511.911 43.4048 502.477 56.4186C495.346 66.256 488.802 77.0682 478.967 84.4823C474.388 87.9346 469.221 90.5806 464.433 93.7343C466.987 93.0826 469.645 92.5405 472.123 91.6444C479.491 88.8188 486.625 86.0228 492.928 81.1387C498.574 76.7638 502.623 71.4053 506.824 65.7049C519.791 48.1121 528.238 40.9087 549.031 33.7321C545.951 33.6077 542.85 33.3701 539.775 33.6449ZM551.886 37.165C536.337 39.5516 525.243 47.9846 516.082 60.4709C500.355 81.9066 495.897 95.0348 466.687 99.6108C460.774 100.537 454.697 101.325 448.721 101.661C454.895 103.905 462.182 103.704 468.623 102.945C481.188 101.309 489.746 97.328 500.004 89.8409C502.508 88.0127 504.883 85.9214 507.487 84.2404C511.129 81.8886 514.641 81.131 517.395 77.4727C519.951 74.0784 522.08 70.3692 524.762 67.0644C537.176 51.7649 551.916 44.2679 570.897 40.1364C564.788 37.7453 558.479 36.3648 551.886 37.165ZM514.13 40.25L514.734 40.25L514.13 40.25ZM614.783 72.6947C615.455 79.6292 617.419 89.886 612.687 95.6695C611.512 97.1049 610.153 98.2593 608.659 99.3437C609.696 100.032 610.502 99.8469 611.707 99.5385C613.969 98.9595 615.166 97.3032 616.228 95.3441C617.479 93.0353 617.825 90.5778 618.309 88.0269L618.743 87.8881Q619.119 89.0361 619.47 90.1921Q619.428 97.7882 619.114 105.378C622.915 99.5552 625.443 93.9256 623.953 86.7692C622.848 81.4638 619.04 76.0484 614.783 72.6947ZM499.883 93.0841C484.742 103.066 470.464 110.821 451.659 107.008C444.542 105.565 431.624 97.4806 424.864 102.111C423.389 103.122 422.706 104.802 421.972 106.366C424.855 106.54 427.726 106.07 430.601 106.39C435.547 106.939 440.649 108.563 445.544 109.566C458.755 112.275 470.827 110.469 483.294 105.757C487.013 104.351 490.69 103.756 493.73 101.022C496.112 98.8784 498.758 96.3417 500.197 93.4555L499.883 93.0841ZM487.283 107.916C473.126 114.154 459.516 116.831 444.073 113.914C437.621 112.695 427.77 108.125 421.448 110.07C421.177 110.154 420.904 110.228 420.633 110.312C417.966 111.133 416.5 112.028 414.682 114.11L414.628 115.078C414.933 115.388 415.314 115.889 415.7 116.081C434.521 121.851 460.195 124.852 478.264 115.159C481.53 113.407 485.769 110.898 488.236 108.183L487.283 107.916ZM492.103 110.452C477.769 123.266 468.571 126.437 449.586 128.935C463.185 131.019 476.461 131.267 488.139 122.764C490.187 121.272 492.104 119.589 494.019 117.933C490.341 125.128 485.757 130.382 477.798 133.018C471.335 135.158 464.582 134.853 457.882 134.412C452.248 133.578 447.446 131.345 442.105 129.538C438.802 130.217 435.824 131.115 432.713 132.424C443.197 140.753 455.163 144.782 468.653 143.246C481.839 141.744 493.564 134.488 501.693 124.136Q505.17 119.69 507.73 114.659C502.843 112.267 497.617 110.415 492.103 110.452ZM513.206 118.254C506.248 131.448 493.571 142.822 479.223 147.314C466.017 151.448 452.326 149.806 440.174 143.327C434.476 140.29 435.195 139.811 430.925 136.203C430.238 135.623 429.759 135.389 428.898 135.336C428.051 136.919 427.291 138.531 426.534 140.159L431.118 145.243C442.504 154.64 460.664 158.6 475.155 157.176Q476.417 157.05 477.672 156.863Q478.927 156.675 480.171 156.427Q481.415 156.178 482.646 155.868Q483.876 155.559 485.09 155.19Q486.304 154.82 487.498 154.392Q488.692 153.963 489.864 153.476Q491.035 152.99 492.182 152.446Q493.328 151.903 494.446 151.304Q495.565 150.705 496.652 150.051Q497.74 149.398 498.794 148.692Q499.849 147.987 500.867 147.23Q501.886 146.473 502.866 145.668Q503.846 144.862 504.785 144.009Q505.724 143.156 506.621 142.259Q507.517 141.361 508.369 140.42Q509.22 139.479 510.024 138.498C513.869 133.777 516.875 128.385 519.672 122.997L513.206 118.254ZM399.252 120.694C392.116 121.435 385.97 122.623 381.215 128.57Q380.672 129.251 380.163 129.958C390.985 127.007 400.503 126.244 411.682 126.54C416.88 127.072 423.784 128.617 428.792 126.959L429.479 126.226C427.371 123.452 414.462 121.316 410.688 120.809C406.977 120.311 402.977 120.358 399.252 120.694ZM525.353 125.227C513.62 141.74 500.026 157.602 479.019 161.238C464.858 163.688 445.815 161.456 433.954 152.747C431.482 150.932 428.653 146.617 426.013 145.669C425.281 146.413 425.49 145.966 425.471 147.195C425.438 149.276 426.012 150.693 427.207 152.356C436.331 162.964 448.947 168.029 462.805 169.009C478.872 170.145 493.148 165.448 505.208 154.789C510.1 150.465 526.01 132.249 526.091 126.049C526.093 125.898 526.055 125.749 526.037 125.599L525.353 125.227ZM392.782 132.708C388.56 132.954 382.825 132.89 379.514 136.023C379.382 136.148 379.275 136.297 379.156 136.434L379.227 137.198C383.476 140.044 398.944 137.464 404.302 136.599C409.384 135.668 415.059 135.083 419.855 133.134C411.359 132.066 401.289 131.75 392.782 132.708ZM420.378 135.589C412.413 137.854 404.532 140.344 396.311 141.522C393.098 141.982 381.686 141.775 380.221 142.497C380.619 143.667 382.057 144.254 383.141 144.825C383.735 145.137 384.37 145.361 384.997 145.595C394.648 148.606 403.872 147.992 412.871 143.21C415.624 141.747 421.234 138.879 422.156 135.867C420.936 135.486 421.532 135.559 420.378 135.589ZM602.079 136.987L602.533 137.34L602.239 136.989L602.079 136.987ZM372.017 148.705C368.239 149.057 358.711 149.593 356.238 152.951C355.397 154.092 355.547 154.516 355.694 155.84C356.982 156.754 357.702 156.767 359.256 156.502C361.183 156.174 363.111 155.621 365.067 155.548C371.623 154.599 377.991 153.685 384.284 151.518C379.983 149.794 376.75 148.266 372.017 148.705ZM370.294 156.67C365.607 157.329 360.241 157.444 355.743 158.892C354.946 160.041 354.988 160.17 355.002 161.583L355.723 162.704C356.21 162.708 356.642 162.761 357.106 162.599C361.311 161.171 368.654 159.545 371.831 156.632L370.294 156.67ZM567.976 163.987C565.794 164.84 563.324 165.644 561.394 166.987C555.376 171.174 554.112 179.393 547.212 182.651C543.148 192.909 537.811 208.611 536.448 219.524C535.731 225.264 536.333 231.214 536.253 236.994C536.108 247.505 536.615 257.961 536.489 268.447C536.409 275.172 535.766 281.867 535.397 288.578C542.517 294.213 548.335 299.71 553.232 307.47C553.111 300.387 553.064 293.179 551.844 286.183C550.224 289.208 548.605 292.221 546.729 295.097C545.041 293.031 543.49 290.919 541.962 288.734C540.636 288.298 538.09 287.795 537.192 286.823C537.644 279.268 538.735 271.952 540.081 264.503C540.635 268.266 540.995 271.885 541.042 275.689C547.08 266.62 548.688 250.736 548.914 240.013C544.962 236.321 542.78 232.677 542.52 227.095C542.075 217.525 547.563 209.367 550.433 200.59C552.811 193.315 552.365 185.131 557.811 179.12C561.527 175.018 566.319 174.16 571.596 174.056C576.467 173.96 580.169 174.511 583.813 177.982C585.276 179.376 586.634 180.898 587.999 182.387L588.52 174.66C584.91 173.822 582.761 171.216 579.495 170.157C577.164 169.401 570.91 169.896 569.495 167.938C568.886 167.094 568.905 166.315 568.711 165.339C568.547 164.513 568.602 164.799 567.976 163.987ZM572.814 182.769C570.566 185.237 570.836 187.835 570.989 191.012C571.639 204.473 577.242 218.694 582.79 230.838C587.227 216.947 574.336 201.726 575.57 187.501C575.697 186.04 576.099 184.477 575.342 183.212C574.501 183.062 573.659 182.892 572.814 182.769ZM566.326 183.312C564.589 184.473 563.777 184.98 563.305 187.148C562.796 189.489 562.856 191.876 562.38 194.215C561.597 198.063 560.237 201.794 559.504 205.657C557.835 214.453 557.639 224.925 558.775 233.816C559.553 239.91 562.129 245.819 562.417 251.944C562.899 262.179 560.948 272.556 560.669 282.807C566.018 274.3 568.155 264.211 568.56 254.285C568.733 250.042 568.621 245.666 569.64 241.525C565.25 231.995 562.811 225.014 563.593 214.409C564.366 210.037 565.105 205.628 566.298 201.346C567.053 211.366 567.524 221.408 569.28 231.313C571.631 244.576 575.296 257.101 576.381 270.614C578.573 258.469 579.686 248.104 576.75 235.919C575.421 230.401 573.673 225.001 572.779 219.384C570.926 207.75 569.938 195.66 567.126 184.212L566.326 183.312ZM577.937 184.318C579.8 192.551 582.049 207.855 588.914 213.183C589.31 203.27 586.109 192.827 579.171 185.411C578.801 185.015 578.365 184.645 577.937 184.318ZM557.29 187.847C551.347 197.68 547.157 221.698 548.221 233.326C548.832 240.007 551.024 246.508 551.987 253.144C552.723 258.221 552.515 264.101 553.962 268.982C554.206 269.806 554.223 269.797 554.523 270.459C556.782 264.505 558.529 258.091 558.821 251.698C559.234 242.67 553.757 235.21 553.508 226.265C553.154 213.562 560.497 202.025 557.29 187.847ZM489.227 215.75L489.626 215.75L489.227 215.75ZM585.655 261.25C585.083 268.827 582.81 279.186 576.651 284.23C574.842 285.711 571.824 287.334 569.383 286.788C567.41 286.347 567.185 285.205 566.207 283.599L566.901 283.697L565.621 283.22C564.31 285.928 564.574 289.149 564.064 292.07C563.311 296.384 560.969 300.787 558.835 304.553C558.082 305.882 554.935 310.376 555.085 311.657C555.123 311.985 555.172 312.315 555.275 312.629C555.64 313.744 556.537 314.981 557.156 315.994L562.269 310.663C574.656 297.188 587.89 286.313 602.509 275.347C597.232 269.75 591.402 266.154 585.655 261.25ZM610.214 274.423C604.02 278.563 598.578 284.212 593.07 289.221C582.48 298.853 572.337 308.116 562.602 318.653C565.574 319.509 571.532 321.978 574.298 320.807L574.886 319.948C584.361 306.869 602.183 288.511 619.01 285.805Q621.563 285.393 624.145 285.266C620.405 281.862 615.061 275.937 610.214 274.423ZM718.508 287.173L718.273 287.612C716.466 291.044 715.311 294.77 713.305 298.098C707.005 308.55 692.278 325.939 690.498 337.485C679.703 337.541 668.908 338.111 658.126 338.109C649.677 338.108 641.255 337.552 632.813 337.422C626.234 347.83 616.99 358.742 618.086 371.669C640.379 376.861 670.139 369.076 689.638 358.14C694.466 361.962 701.925 362.611 707.888 361.929C720.02 360.543 726.738 352.125 736.937 346.976C744.279 343.269 753.187 341.864 761.221 340.34C765.665 343.997 774.721 351.247 780.745 350.979C781.271 350.568 781.679 350.466 781.792 349.752C782.225 347.017 779.616 342.965 778.278 340.628C772.712 337.911 766.9 335.67 761.621 332.41L760.786 332.418C756.497 332.48 742.165 334.883 739.4 333.663C740.826 331.149 745.337 329.966 747.985 329.245C756.727 326.866 763.938 324.923 772.628 328.68C777.104 330.422 786.332 335.405 790.798 334.159C791.819 333.281 792.153 333.039 792.354 331.617C792.584 329.986 791.579 327.457 791.134 325.901C783.193 322.116 774.155 319.486 765.619 317.372C761.649 319.084 738.022 323.047 734.696 321.443C734.567 321.381 734.458 321.286 734.338 321.207C736.035 318.782 754.284 313.833 758.044 313.186C773.273 310.567 785.724 321.278 792.422 320.894C793.075 319.286 793.255 317.817 792.548 316.19C791.073 312.802 787.033 311.206 783.774 310.095C778.699 308.365 766.632 304.338 761.789 304.255C753.29 304.111 742.534 312.127 729.923 311.3C735.318 308.656 741.057 306.854 746.649 304.681C751.473 302.805 756.204 300.503 761.185 299.079L761.87 299.256C766.448 300.459 787.091 309.252 789.315 308.73C786.111 301.269 767.481 293.632 759.816 290.154C752.861 290.994 745.766 292.913 739.423 295.917C729.231 300.744 721.262 306.969 709.568 307.841C715.745 303.387 722.817 299.012 727.809 293.245C725.564 290.372 723.35 287.697 719.477 287.262C719.155 287.226 718.831 287.203 718.508 287.173ZM619.839 296.025C613.374 298.529 609.317 301.618 606.413 308.143C604.373 312.728 603.313 317.764 602.174 322.632C607.518 322.373 613.52 321.597 618.716 323.107C624.254 324.717 629.016 327.687 634.815 328.762C645.818 330.801 660.776 330.073 672.014 329.427C675.73 329.023 679.481 328.496 683.213 328.315C685.008 324.289 686.961 320.544 689.407 316.875C665.755 312.596 641.728 305.994 619.839 296.025ZM408.585 332.429C408.433 332.532 408.281 332.634 408.131 332.74C401.916 337.116 396.373 343.127 390.696 348.215C375.266 362.047 348.756 384.991 328.432 389.616C322.515 390.963 316.61 390.541 310.608 390.257C313.333 391.703 316.004 393.035 318.877 394.164C330.961 398.3 344.108 397.745 355.657 392.101C374.553 382.865 397.88 352.401 412.138 336.283C411.091 334.955 410.038 333.307 408.585 332.429ZM425.613 353.402C408.008 374.275 370.545 397.327 344.444 405.653C347.864 406.497 351.174 407.213 354.681 407.581C375.574 408.277 403.273 396.269 418.312 382.192C424.739 376.175 429.858 368.839 434.708 361.532C431.782 359.157 428.714 355.194 425.613 353.402ZM266.492 375.268C273.329 386.3 279.901 397.839 288.035 407.978C310.236 435.65 346.892 461.67 381.498 469.689C391.453 471.995 402.05 473.192 412.265 472.414C417.165 468.699 420.325 464.721 423.273 459.353C424.198 457.065 425.052 454.811 425.755 452.441C417.797 459.686 411.938 465.896 400.196 465.383C392.494 465.046 384.706 463.284 377.155 461.794C369.079 460.202 360.493 458.842 352.956 455.42C340.615 449.817 319.683 427.852 310.382 417.606C302.833 409.29 295.265 400.881 287.947 392.362C284.195 387.994 280.631 382.046 276.055 378.558C273.773 376.819 269.293 376.09 266.492 375.268ZM260.8 375.789C263.06 394.457 268.93 413.055 274.154 431.071C281.227 455.461 288.461 479.847 297.378 503.641C302.623 517.638 308.635 531.353 314.109 545.263C325.173 573.376 335.512 602.354 342.842 631.683C348.912 655.969 354.668 680.764 358.753 705.456C361.808 723.923 363.859 742.789 365.616 761.424C366.355 769.266 366.535 777.235 366.408 785.109C366.322 790.517 364.737 800.889 365.885 805.594C368.128 806.416 370.2 805.536 372.319 804.623C373.934 803.201 374.367 802.348 374.537 800.201C375.075 793.421 374.162 786.07 373.789 779.275Q372.303 753.85 370.216 728.467C365.243 665.927 355.21 602.351 330.674 544.16C320.81 520.767 308.901 498.533 298.293 475.521C293.914 466.021 289.995 456.135 286.173 446.396C282.776 437.743 280.08 428.765 277.433 419.86C273.596 406.952 270.783 394.667 264.613 382.531C263.508 380.359 262.4 377.614 260.8 375.789ZM480.616 384.982C464.278 405.947 454.591 419.32 428.513 428.874C429.871 435.486 431.457 441.922 433.511 448.362C449.274 462.445 463.938 477.619 478.579 492.848C492.333 507.153 506.218 521.551 518.616 537.068C529.502 550.693 538.906 565.519 549.346 579.474C556.508 589.048 570.304 600.436 571.03 612.742C571.465 620.107 568.823 627.274 569.392 634.614C570.104 643.793 572.291 652.889 573.259 662.059C576.372 691.551 578.859 721.924 578.478 751.573Q564.208 757.027 550.109 762.91C548.512 769.414 546.851 775.883 546.253 782.574C549.964 780.616 553.947 778.026 558.076 777.192C565.691 775.653 574.722 776.501 582.526 776.496Q605.505 776.578 628.483 776.37C624.425 771.383 620.586 766.392 617.235 760.888C606.931 744.243 596.747 726.922 588.72 709.036Q592.109 692.809 595.124 676.509C596.872 667.502 600.223 656.944 599.563 647.834C599.224 643.146 597.793 638.305 596.831 633.704C595.119 625.515 593.605 616.673 593.439 608.308C593.194 595.925 596.2 580.018 594.763 568.83C592.609 552.056 586.32 534.173 585.165 517.605C587.871 511.588 591.978 505.992 595.368 500.311C605.108 483.99 615.065 467.98 625.737 452.238C630.337 445.453 638.686 436.066 641.283 428.683C643.718 421.762 646.44 393.532 646.564 385.337C629.358 390.919 612.144 393.501 594.415 396.602C585.443 407.186 570.496 425.296 557.536 430.03C536.726 424.45 499.264 398.282 480.616 384.982ZM290.179 419.881C292.459 433.461 297.977 447.207 302.867 460.037C316.306 495.299 333.06 529.218 347.314 564.135C364.402 605.994 375.587 650.281 384.686 694.486C386.757 704.544 401 781.978 404.507 785.081C405.838 785.07 405.594 784.975 406.488 784.122C410.301 769.568 406.548 742.887 404.907 727.334C403.558 714.552 402.315 701.68 400.356 688.977C392.924 640.793 379.79 592.14 360.658 547.265C353.377 530.188 344.894 513.913 336.552 497.364C328.582 481.554 321.35 465.801 312.379 450.478C309.174 445.003 294.775 423.727 290.179 419.881ZM359.534 429.471C372.159 437.918 386.955 445.21 402.588 442.178C406.041 441.508 409.47 440.308 412.634 438.78L414.822 437.497L414.794 437.064C411.17 437.023 407.645 437.911 404.037 438.101C396.963 438.474 389.215 437.373 382.312 435.866C376.219 434.536 364.507 429.864 359.534 429.471ZM652.316 537.935C662.225 547.777 683.145 565.824 689.369 576.843C691.555 580.714 693.028 585.072 694.62 589.217C699.22 601.194 703.539 615.02 711.431 625.292C729.825 649.232 784.348 699.789 812.594 710.188C835.202 718.511 859.455 721.667 882.149 729.997C890.435 733.038 898.068 737.118 906.002 740.922C913.814 744.669 921.8 748.077 929.693 751.652C936.378 754.681 942.965 757.943 949.83 760.554C951.267 758.311 952.746 756.087 954.066 753.773C956.046 750.303 958.073 746.852 959.989 743.346C953.651 740.282 947.11 737.355 940.982 733.899C929.681 727.525 918.638 719.881 907.917 712.564C895.947 712.062 884.077 710.566 872.182 709.19C859.161 707.684 844.811 706.566 832.337 702.393C812.808 695.859 728.631 640.632 714.897 625.658C711.04 621.452 710.085 615.846 708.433 610.569C705.975 602.718 698.355 576.326 694.039 570.891C689.055 564.614 678.784 558.329 672.301 553.26C667.247 549.308 657.826 540.332 652.316 537.935ZM662.449 567.376C665.345 575.985 668.732 584.463 671.975 592.948C673.842 597.831 675.43 603.331 678.032 607.868C683.25 616.969 691.598 625.441 698.555 633.242Q706.447 642.097 713.908 651.318C725.807 665.915 736.892 682.634 749.145 696.599C753.148 701.161 784.361 712.798 791.949 714.57C772.45 700.363 753.617 683.747 736.091 667.159C729.567 660.984 723.379 654.457 716.843 648.294C707.196 639.197 695.736 630.466 688.047 619.583C683.155 612.658 680.408 603.504 677.047 595.742C674.032 588.78 670.609 581.964 667.144 575.217C665.902 572.8 664.495 569.11 662.449 567.376ZM403.647 594.25L404.245 594.25L403.647 594.25ZM204.674 610.422C204.368 616.561 204.52 622.697 204.312 628.837Q203.677 646.851 201.626 664.759C200.406 675.331 199.091 686.002 197.148 696.471C193.548 715.868 188.597 735.202 184.119 754.422L178.912 776.29C178.181 779.343 177.691 782.619 176.663 785.583C176.143 787.083 175.738 788.348 174.55 789.424C172.713 784.591 186.289 695.058 187.951 682.159C183.18 693.189 178.656 704.067 175.573 715.71C172.017 728.516 169.454 741.633 165.463 754.308C161.325 767.45 155.475 779.959 149.487 792.335C161.685 799.516 171.555 804.547 186.071 804.696C189.934 794.313 193.845 783.942 196.908 773.287C208.418 733.236 211.548 691.165 209.051 649.698C208.27 636.74 207.596 623.099 204.674 610.422ZM946.876 643.476C954.707 648.006 961.518 653.792 969.149 658.531C972.818 660.81 977.009 662.539 980.934 664.338C983.606 665.563 986.292 667.034 989.228 667.447C990.249 666.852 990.083 666.882 990.535 665.894L992.416 657.913Q980.487 654.083 968.641 650.005C961.848 647.674 953.998 644.11 946.876 643.476ZM435.225 653.849C443.844 662.372 448.269 673.143 448.291 685.207C448.319 699.98 445.433 715.328 442.221 729.699C440.863 735.777 438.974 741.901 438.158 748.073C438.884 746.776 439.622 745.5 440.204 744.128C448.804 724.373 458.842 688.367 450.704 667.974C448.134 661.536 443.425 656.858 436.97 654.3C436.372 654.063 435.854 653.963 435.225 653.849ZM452.95 658.484C455.342 663.853 458.027 669.164 459.545 674.867C465.886 698.679 464.409 734.436 455.712 757.647L466.891 759.964L468.195 760.07C473.07 754.962 473.634 728.649 473.457 721.194C472.989 701.489 470.067 674.718 455.056 660.415C454.367 659.758 453.679 659.096 452.95 658.484ZM422.373 765.227L414.532 765.547C414.618 773.159 415.153 786.221 409.431 792.124C408.184 793.411 406.574 794.039 404.807 794.213C399.686 794.718 394.031 793.165 389.083 794.943C378.26 798.832 384.035 813.613 367.984 813.591C360.254 813.581 354.444 807.603 346.154 808.8C341.654 809.45 338.419 812.308 334.84 814.84C319.478 825.706 305.191 820.903 289.489 813.882C275.975 821.067 260.028 829.881 244.309 825.091C239.518 823.631 235.341 821.133 231.102 818.525C204.694 839.9 149.528 885.364 138.049 915.843C139.605 925.245 142.334 933.659 147.181 941.887C147.361 941.85 147.541 941.817 147.719 941.778C150.869 941.092 153.834 939.813 156.83 938.651C170.029 933.531 172.612 934.474 185.845 937.94C194.71 940.421 203.677 942.822 212.411 945.73C220.595 932.381 227.595 917.435 233.485 902.919C239.29 898.266 247.773 894.989 254.384 891.481L280.537 877.669C286.616 874.479 292.827 870.896 299.309 868.599C316.712 872.305 333.868 876.881 351.164 881.044C366.237 884.671 381.563 887.733 396.288 892.616C416.296 882.584 436.811 872.611 456.031 861.14C464.229 834.571 468.824 793.676 459.732 767.245C447.678 765.035 434.618 764.686 422.373 765.227ZM535.001 768.529C515.566 775.4 515.628 778.484 504.246 794.115C501.874 797.373 499.418 800.577 496.34 803.203C495.909 803.57 495.486 803.94 495.047 804.299C494.987 804.114 494.923 803.93 494.866 803.744C493.141 798.17 493.68 787.775 490.611 783.407C489.542 783.574 489.922 783.323 489.265 784.194C483.095 792.385 480.615 813.847 478.342 824.382C476.979 830.049 475.453 835.723 474.364 841.448C480.244 832.609 500.681 807.38 509.034 801.723C515.276 797.495 522.591 794.924 529.123 791.163C530.946 785.223 535.224 774.117 535.001 768.529ZM664.952 781.726Q631.87 782.725 598.775 783.087C585.918 783.245 573.055 783.904 560.213 782.955C552.043 788.029 543.5 792.118 534.785 796.155C528.609 799.015 520.932 801.602 515.595 805.869C511.562 809.093 508.474 814.148 505.099 818.076C499.527 824.562 493.796 830.901 488.282 837.439C481.242 845.786 471.371 858.792 463.051 865.14C458.796 868.387 453.8 870.91 449.123 873.495C433.359 882.206 416.509 889.124 400.913 898.006L404.741 903.324L405.319 902.946C416.936 895.445 434.006 889.061 446.845 883.43C452.033 881.155 457.806 879.124 462.437 875.811C468.294 871.62 473.102 865.073 477.797 859.637L502.614 830.915C507.465 825.336 512.238 819.244 517.74 814.315C521.374 811.059 526.044 809.103 530.373 806.951C540.706 801.815 552.041 797.266 561.333 790.383C567.864 792.605 576.11 792.53 582.975 793.096C593.532 793.967 604.246 795.257 614.83 795.57C627.69 795.951 648.178 794.738 661.021 793.436L665.741 796.288Q691.58 813.496 718.322 829.265Q730.408 836.302 742.684 843.002C747.119 845.413 753.998 847.416 757.463 850.931C761.524 855.048 764.398 861.552 767.479 866.468C772.801 874.961 778.434 883.274 783.581 891.873C789.248 901.343 794.463 911.07 800.267 920.462C806.358 922.4 812.389 924.015 818.693 925.148C825.667 926.402 834.847 926.35 841.189 929.33C844.947 931.095 848.067 934.119 851.011 936.976C863.241 948.843 865.742 954.088 883.224 958.32C873.796 950.407 858.928 932.726 850.619 922.777Q837.262 918.545 823.812 914.62C816.39 912.509 808.567 910.759 801.447 907.78C786.379 886.218 775.313 861.529 762.553 838.539Q732.289 821.94 703.416 803.026Q693.251 796.226 683.203 789.256C679.743 786.87 676.075 783.81 672.264 782.082C670.278 781.182 667.112 781.65 664.952 781.726ZM827.74 855.907C820.301 859.37 793.027 869.562 789.067 874.217L789.055 874.8C794.383 877.151 820.409 867.292 826.701 864.842Q827.606 864.493 828.499 864.114C841.646 867.979 853.725 874.021 866.041 879.918L901.439 896.889C908.056 901.179 911.704 910.133 915.87 916.656C918.232 920.354 920.816 923.858 923.524 927.308C920.751 919.341 910.589 896.04 905.274 890.544C903.59 888.803 900.939 887.716 898.774 886.673C889.26 882.09 833.68 856.192 827.74 855.907Z"/>
	<path fill="#E6A735" d="M590.36 50.8199L590.997 50.6297L590.36 50.8199Z"/>
	<path fill="#E6A735" d="M578.65 139.722C576.598 139.577 574.349 139.548 572.349 139.069C569.724 138.44 568.584 136.348 567.286 134.192C565.883 131.862 564.498 130.893 562.228 129.476L561.378 128.95C561.479 128.01 561.548 127.311 562.149 126.526C563.25 125.087 565.134 124.549 566.836 124.228C574.174 122.845 580.57 123.376 586.819 127.619L587.034 128.144L587.497 128.998L587.034 128.144L586.819 127.619C582.557 119.893 569.141 122.357 561.788 120.07Q565.056 118.016 568.53 116.333C576.59 112.51 583.846 113.382 591.403 117.817C593.128 118.83 595.04 120.374 596.955 120.929C597.71 121.148 597.811 120.871 598.434 120.505C599.421 118.339 598.985 115.226 599.006 112.849L599.485 112.713C600.897 114.513 602.078 116.337 602.069 118.712C602.049 123.738 596.106 128.517 592.818 131.759C591.22 132.75 589.349 133.735 588.201 135.269C587.303 136.471 587.429 137.351 587.641 138.741L587.067 139.151C586.426 138.622 586.669 138.851 586.086 138.254L585.679 137.832L585.389 137.864L584.471 139.858C583.135 139.664 584.323 139.043 583.531 138.061C582.285 138.711 581.732 139.029 580.949 140.258C581.128 141.818 581.87 142.432 582.814 143.662L582.578 144.396C579.053 145.421 574.888 145.448 571.217 145.793Q575.014 142.856 578.65 139.722ZM583.129 129.002L583.367 129.741L583.905 129.998L583.367 129.741L583.129 129.002ZM571.458 127.67C569.84 127.912 567.661 127.944 566.271 128.799C568.425 131.705 570.24 136.712 574.09 137.284C574.904 137.405 575.732 137.446 576.552 137.488C576.42 136.283 576.359 135.519 575.813 134.403L575.908 134.653C576.988 132.752 578.58 130.582 578.79 128.383C578.126 127.458 578.169 127.422 577.088 127.285C575.334 127.062 573.223 127.486 571.458 127.67ZM587.748 129.75L588.14 129.75L587.748 129.75ZM588.715 132.693L589.018 133.011L588.715 132.693Z"/>
	<path fill="#E6A735" d="M522.773 171.943C524.663 163.874 527.148 156.144 531.822 149.184C532.188 156.153 531.467 162.838 526.6 168.32C525.432 169.636 524.118 170.811 522.773 171.943Z"/>
	<path fill="#E6A735" d="M528.061 182.86C527.644 182.584 527.586 182.043 527.415 181.582C528.215 174.243 533.31 166.29 536.78 159.843C537.292 160.334 537.467 160.715 537.522 161.461C537.818 165.45 530.703 179.605 528.061 182.86Z"/>
	<path fill="#E6A735" d="M535.327 181.996C536.409 178.319 537.42 171.761 540.659 169.527C539.556 173.558 538.133 178.825 535.327 181.996Z"/>
	<path fill="#E6A735" d="M522.575 172.419L522.773 171.943L522.575 172.419Z"/>
	<path fill="#E6A735" d="M534.828 182.689L535.327 181.996L534.828 182.689Z"/>
	<path fill="#E6A735" d="M534.608 182.998L534.828 182.689L534.608 182.998Z"/>
	<path fill="#E6A735" d="M534.131 183.806L534.387 183.502L534.131 183.806Z"/>
	<path fill="#E6A735" d="M382.028 187.037L382.498 186.625L382.028 187.037Z"/>
	<path fill="#E6A735" d="M381.65 187.338L382.028 187.037L381.65 187.338Z"/>
	<path fill="#E6A735" d="M326.756 213.337L326.973 213.102L326.756 213.337Z"/>
	<path fill="#E6A735" d="M436.039 223.468L435.566 223.035L436.039 223.468Z"/>
	<path fill="#E6A735" d="M436.039 223.468L436.373 223.781L436.039 223.468Z"/>
	<path fill="#E6A735" d="M394.936 250.764L394.627 250.502L394.936 250.764Z"/>
	<path fill="#E6A735" d="M449.593 256.25L449.136 256.002L449.593 256.25Z"/>
	<path fill="#E6A735" d="M435.275 266.885L435.002 266.621L435.275 266.885Z"/>
	<path fill="#E6A735" d="M435.275 266.885L436.039 267.277L435.275 266.885Z"/>
	<path fill="#E6A735" d="M380.154 331.26L380.4 331.032L380.154 331.26Z"/>
	<path fill="#E6A735" d="M706.982 349.77C699.565 350.307 693.67 349.726 687.554 345.046C693.491 344.836 701.432 347.619 706.982 349.77Z"/>
	<path fill="#E6A735" d="M518.401 377.081C517.281 376.697 516.18 376.229 515.076 375.798L515.558 375.778L515.346 375.531C536.39 380.07 573.428 367.144 593.256 358.559L593.573 358.702C592.824 361.01 585.667 364.48 583.46 365.753C565.476 376.13 538.868 382.509 518.401 377.081Z"/>
	<path fill="#E6A735" d="M388.502 418.975L389.078 418.681L388.502 418.975Z"/>
	<path fill="#E6A735" d="M904.066 565.049C885.299 559.381 851.156 535.781 840.184 520.311C846.102 521.563 852.499 524.791 858.162 526.972C885.82 537.629 887.164 541.115 904.066 565.049Z"/>
	<path fill="#E6A735" d="M478.214 540.684L478.498 540.919L478.214 540.684Z"/>
	<path fill="#E6A735" d="M258.516 566.223L258.875 566.497L258.516 566.223Z"/>
	<path fill="#E6A735" d="M280.501 604.745L280.875 604.997L280.501 604.745Z"/>
	<path fill="#E6A735" d="M520.725 615.097L520.997 615.371L520.725 615.097Z"/>
	<path fill="#E6A735" d="M536.133 634.226L536.384 634.054L536.133 634.226Z"/>
	<path fill="#E6A735" d="M525.671 673.603L525.93 673.003L525.671 673.603Z"/>
	<path fill="#E6A735" d="M524.593 748.997L524.836 748.686L524.593 748.997Z"/>
	<path fill="#E6A735" d="M149.075 856.952L149.27 856.677L149.075 856.952Z"/>
	<path fill="#E6A735" d="M102.306 926.736C101.772 926.218 101.721 926.224 101.277 925.472C99.2623 922.063 97.583 910.307 99.0199 906.6C99.8104 904.561 102.595 903.702 104.453 902.882C105.027 902.97 105.571 903.195 106.12 903.379C106.977 904.419 107.433 905.225 107.675 906.569C108.865 913.168 105.949 921.352 102.306 926.736Z"/>
	<path fill="#E6A735" d="M894.255 961.03L894.478 961.375L894.255 961.03Z"/>
</svg>
